<svg xmlns="http://www.w3.org/2000/svg" viewBox="0 0 80 80">
  <defs>
    <linearGradient id="leaf" x1="0" x2="1" y1="1" y2="0">
      <stop offset="0%" stop-color="#5ca946" />
      <stop offset="100%" stop-color="#8bd66a" />
    </linearGradient>
    <linearGradient id="earth" x1="0" x2="1" y1="0" y2="1">
      <stop offset="0%" stop-color="#9be7ff" />
      <stop offset="100%" stop-color="#6dc2e6" />
    </linearGradient>
    <linearGradient id="land" x1="0" x2="1">
      <stop offset="0%" stop-color="#6fa968" />
      <stop offset="100%" stop-color="#4d8a55" />
    </linearGradient>
  </defs>
  <rect width="80" height="80" rx="16" fill="#ffffff" />
  <g transform="translate(0, -4)">
    <path d="M40 16c4 2 9.5 9 9.5 14.5s-4 8.5-9.5 8.5-9.5-3-9.5-8.5S36 18 40 16z" fill="url(#leaf)" transform="translate(4,0)" />
    <path d="M40 16c-4 2-9.5 9-9.5 14.5s4 8.5 9.5 8.5 9.5-3 9.5-8.5S44 18 40 16z" fill="url(#leaf)" transform="translate(-8,0)" />
  </g>
  <g transform="translate(8,12)">
    <circle cx="32" cy="32" r="26" fill="url(#earth)" />
    <path d="M16 24c4-6 10-11 19-11 12 0 20 8 21 14-1 5-6 10-13 11-6 1-8 3-9 6-2 5-7 8-15 7-4-1-7-5-7-10 0-5 2-12 4-17z" fill="url(#land)" />
    <path d="M36 15c4 0 9 3 12 7-2 5-6 9-12 10-3 1-6-2-7-6-1-5 2-11 7-11z" fill="#75b46a" opacity="0.7" />
    <text x="32" y="38" text-anchor="middle" font-family="Inter, sans-serif" font-size="10" fill="#ffffff">CO₂</text>
  </g>
</svg>